<svg width="74" height="73" viewBox="0 0 74 73" fill="none" xmlns="http://www.w3.org/2000/svg">
<g id="Group 73">
<g id="Rectangle 4" filter="url(#filter0_d_4_180)">
<rect x="14" y="6" width="46" height="45" rx="14" fill="white"/>
</g>
<g id="Group">
<path id="Vector" d="M26 27.4967V27.976C25.9999 29.9578 26.5341 31.903 27.5462 33.6068C28.5584 35.3106 30.0112 36.7101 31.7516 37.6579V39H41.3377V37.6579C43.0782 36.7101 44.5309 35.3106 45.5431 33.6068C46.5553 31.903 47.0894 29.9578 47.0893 27.976V27.4967H26Z" stroke="#5051F9" stroke-miterlimit="10"/>
<path id="Vector_2" d="M43.9319 23.1231L47.311 18.5218" stroke="#5051F9" stroke-miterlimit="10"/>
<path id="Vector_3" d="M42.7037 22.2843L43.8361 17" stroke="#5051F9" stroke-miterlimit="10"/>
<path id="Vector_4" d="M27.5577 27.4967C27.2913 26.2012 27.4612 24.8538 28.0407 23.6649C28.6203 22.4759 29.577 21.5122 30.7617 20.9239C31.9464 20.3357 33.2925 20.156 34.59 20.4129C35.8875 20.6699 37.0635 21.3489 37.9346 22.3442" stroke="#5051F9" stroke-miterlimit="10"/>
<path id="Vector_5" d="M29.5348 27.4967C29.263 26.6143 29.2989 25.6658 29.6368 24.8065C29.9747 23.9472 30.5944 23.2282 31.3945 22.7672C32.1945 22.3063 33.1274 22.1307 34.0402 22.2694C34.9531 22.4081 35.7918 22.8528 36.4188 23.5305" stroke="#5051F9" stroke-miterlimit="10"/>
<path id="Vector_6" d="M31.6378 27.4967C31.4717 27.2509 31.3581 26.9735 31.3041 26.6818C31.2501 26.3901 31.2569 26.0904 31.3239 25.8014C31.391 25.5125 31.517 25.2404 31.694 25.0024C31.871 24.7643 32.0952 24.5653 32.3526 24.4178C32.61 24.2703 32.895 24.1775 33.1899 24.1452C33.4848 24.1128 33.7831 24.1417 34.0664 24.2299C34.3496 24.3181 34.6116 24.4638 34.836 24.6579C35.0603 24.852 35.2422 25.0902 35.3703 25.3578" stroke="#5051F9" stroke-miterlimit="10"/>
<path id="Vector_7" d="M41.7271 27.4967C41.8062 27.2795 41.8318 27.0464 41.8017 26.8172C41.7716 26.5879 41.6866 26.3693 41.554 26.1799C41.4214 25.9905 41.2451 25.8359 41.0401 25.7291C40.835 25.6223 40.6072 25.5666 40.376 25.5666C40.1448 25.5666 39.917 25.6223 39.712 25.7291C39.5069 25.8359 39.3306 25.9905 39.198 26.1799C39.0654 26.3693 38.9805 26.5879 38.9504 26.8172C38.9202 27.0464 38.9458 27.2795 39.025 27.4967" stroke="#5051F9" stroke-miterlimit="10"/>
<path id="Vector_8" d="M43.6983 27.4967C43.7718 27.0186 43.741 26.5303 43.6081 26.0652C43.4752 25.6002 43.2433 25.1693 42.9284 24.8022C42.6134 24.4351 42.2228 24.1405 41.7833 23.9385C41.3438 23.7365 40.8658 23.6319 40.3821 23.6319C39.8984 23.6319 39.4204 23.7365 38.9809 23.9385C38.5414 24.1405 38.1508 24.4351 37.8358 24.8022C37.5209 25.1693 37.289 25.6002 37.1561 26.0652C37.0232 26.5303 36.9924 27.0186 37.0659 27.4967" stroke="#5051F9" stroke-miterlimit="10"/>
<path id="Vector_9" d="M45.6274 27.4967C45.6394 27.3409 45.6514 27.1792 45.6514 27.0174C45.6514 25.6191 45.0959 24.278 44.1071 23.2893C43.1184 22.3005 41.7773 21.7451 40.379 21.7451C38.9807 21.7451 37.6397 22.3005 36.6509 23.2893C35.6622 24.278 35.1067 25.6191 35.1067 27.0174C35.1067 27.1792 35.1187 27.3409 35.1307 27.4967" stroke="#5051F9" stroke-miterlimit="10"/>
</g>
</g>
<defs>
<filter id="filter0_d_4_180" x="0" y="0" width="74" height="73" filterUnits="userSpaceOnUse" color-interpolation-filters="sRGB">
<feFlood flood-opacity="0" result="BackgroundImageFix"/>
<feColorMatrix in="SourceAlpha" type="matrix" values="0 0 0 0 0 0 0 0 0 0 0 0 0 0 0 0 0 0 127 0" result="hardAlpha"/>
<feOffset dy="8"/>
<feGaussianBlur stdDeviation="7"/>
<feComposite in2="hardAlpha" operator="out"/>
<feColorMatrix type="matrix" values="0 0 0 0 0.241771 0 0 0 0 0.420242 0 0 0 0 0.879167 0 0 0 0.12 0"/>
<feBlend mode="normal" in2="BackgroundImageFix" result="effect1_dropShadow_4_180"/>
<feBlend mode="normal" in="SourceGraphic" in2="effect1_dropShadow_4_180" result="shape"/>
</filter>
</defs>
</svg>
